# xmcd
#
# Track frame offsets:
#	150
#	17967
#	38097
#	55940
#	74740
#	97452
#	115140
#	134087
#	154410
#	173312
#	189337
#	204972
#	223482
#	242847
#
# Disc length: 3473 seconds
#
# Revision: 1
# Processed by: cddbd v1.5.1PL0 Copyright (c) Steve Scherf et al.
# Submitted via: CDex 1.50Beta5
#
DISCID=d80d8f0e
DTITLE=富田靖子 - 少女譜〜富田靖子CDスペシャル〜
DYEAR=1991
DGENRE=Pop
TTITLE0=林檎雨
TTITLE1=オレンジ色の絵葉書
TTITLE2=渚のドルフィン
TTITLE3=夜空のララバイ
TTITLE4=さびしんぼう
TTITLE5=恋を振り向かないで
TTITLE6=水彩画の頃
TTITLE7=ストレンジRainに包まれて
TTITLE8=あなただけ…今晩は
TTITLE9=君はシンデレラ
TTITLE10=スイート
TTITLE11=君がいるだけで
TTITLE12=感傷物語
TTITLE13=なんて素敵にジャパネスク
EXTD=
EXTT0=
EXTT1=
EXTT2=
EXTT3=
EXTT4=
EXTT5=
EXTT6=
EXTT7=
EXTT8=
EXTT9=
EXTT10=
EXTT11=
EXTT12=
EXTT13=
PLAYORDER=
